<svg xmlns="http://www.w3.org/2000/svg" viewBox="0 0 32 32">
  
  <rect width="32" height="32" rx="6" fill="#0f172a"></rect>
  
  <polygon fill="#38bdf8" points="&#xA;      23.8,11.5 24.8,14.1 28.8,13.7 28.8,18.3 24.8,17.9&#xA;      23.8,20.5 22.0,22.7 24.4,26.0 20.4,28.2 18.8,24.6&#xA;      16.0,25.0 13.2,24.6 11.6,28.2  7.6,26.0 10.0,22.7&#xA;       8.2,20.5  7.2,17.9  3.2,18.3  3.2,13.7  7.2,14.1&#xA;       8.2,11.5 10.0, 9.3  7.6, 6.0 11.6, 3.8 13.2, 7.4&#xA;      16.0, 7.0 18.8, 7.4 20.4, 3.8 24.4, 6.0 22.0, 9.3&#xA;    "></polygon>
  
  <circle cx="16" cy="16" r="5" fill="#0f172a"></circle>
  
  <circle cx="16" cy="16" r="2" fill="#38bdf8"></circle>
</svg>